<svg xmlns="http://www.w3.org/2000/svg" viewBox="0 0 700 900">
  <defs><linearGradient id="b" x1="0" y1="1" x2="1" y2="0"><stop stop-color="#171411"/><stop offset="1" stop-color="#a47658"/></linearGradient></defs>
  <rect width="700" height="900" fill="url(#b)"/>
  <circle cx="354" cy="331" r="188" fill="#bb8762"/>
  <path d="M179 318c20-154 104-236 191-225 103 12 160 99 154 238-39-62-88-95-149-99-78-5-142 24-196 86Z" fill="#1c1714"/>
  <path d="M220 397c16 202 95 294 160 287 65-7 136-120 112-290-28 52-67 83-116 86-54 3-106-26-156-83Z" fill="#211915"/>
  <path d="M277 342c25-14 51-14 78 1M389 343c25-14 51-14 75 0" fill="none" stroke="#38251c" stroke-width="10" stroke-linecap="round"/>
  <path d="M314 463c29 21 69 22 96 0" fill="none" stroke="#c89470" stroke-width="8" stroke-linecap="round"/>
  <path d="M160 900c32-167 99-252 194-252 95 0 162 85 187 252" fill="#12100e"/>
  <path d="M221 562c57 98 213 101 269-3" fill="none" stroke="#d5aa8b" stroke-width="5" opacity=".25"/>
</svg>
