<svg xmlns="http://www.w3.org/2000/svg" viewBox="0 0 700 900">
  <defs><linearGradient id="a" x1="0" y1="0" x2="1" y2="1"><stop stop-color="#c49d7b"/><stop offset="1" stop-color="#2b211b"/></linearGradient></defs>
  <rect width="700" height="900" fill="url(#a)"/>
  <circle cx="355" cy="360" r="194" fill="#2b201a" opacity=".92"/>
  <path d="M236 207c57-84 191-93 261 2-31 46-73 65-127 66-54 0-100-22-134-68Z" fill="#171310"/>
  <path d="M231 289c-21 145 16 268 130 290 122 24 207-102 149-278-49 64-117 94-190 68-42-15-69-41-89-80Z" fill="#b9825f"/>
  <path d="M264 421c50 56 132 60 187 1" fill="none" stroke="#2f211a" stroke-width="13" stroke-linecap="round"/>
  <path d="M284 340c26-15 52-15 78 1M394 341c26-16 52-16 76-1" fill="none" stroke="#2f211a" stroke-width="10" stroke-linecap="round"/>
  <path d="M313 500c28 24 72 25 100 0" fill="none" stroke="#4b2c20" stroke-width="8" stroke-linecap="round"/>
  <path d="M180 900c26-210 86-315 177-315 100 0 166 104 185 315" fill="#181512"/>
  <path d="M222 253c-18 23-25 57-21 102 5 62 21 104 45 133" fill="none" stroke="#e5c5aa" stroke-width="6" opacity=".45"/>
</svg>
