<svg xmlns="http://www.w3.org/2000/svg" viewBox="0 0 900 1100">
  <defs>
    <linearGradient id="wall" x1="0" y1="0" x2="0" y2="1">
      <stop stop-color="#91735c"/>
      <stop offset=".7" stop-color="#4f3c31"/>
      <stop offset="1" stop-color="#2b231e"/>
    </linearGradient>
    <linearGradient id="floor" x1="0" y1="0" x2="1" y2="1">
      <stop stop-color="#302620"/>
      <stop offset="1" stop-color="#171310"/>
    </linearGradient>
  </defs>
  <rect width="900" height="1100" fill="url(#wall)"/>
  <path d="M0 760h900v340H0z" fill="url(#floor)"/>
  <path d="M0 760h900M108 1100l160-340M362 1100l55-340M615 1100l-48-340M870 1100L720 760" stroke="#8c684f" stroke-width="3" opacity=".35"/>
  <rect x="82" y="120" width="360" height="520" rx="2" fill="#191512" stroke="#d0a987" stroke-width="8"/>
  <rect x="111" y="150" width="302" height="462" fill="#59463a"/>
  <circle cx="262" cy="378" r="96" fill="#c59b75" opacity=".28"/>
  <rect x="529" y="179" width="272" height="323" fill="#211a16" stroke="#bd8d68" stroke-width="5"/>
  <path d="M551 455c44-121 85-169 137-169s79 54 90 169" fill="none" stroke="#bd8d68" stroke-width="8" opacity=".55"/>
  <g fill="#171310" stroke="#d3b39a" stroke-width="7">
    <path d="M168 668c0-48 37-83 91-83s93 36 93 83v171H168z"/>
    <path d="M199 837h123l-13 105H212z"/>
    <path d="M218 942h75v88h-75z"/>
    <path d="M179 1029h153"/>
  </g>
  <g fill="#171310" stroke="#d3b39a" stroke-width="7">
    <path d="M546 671c0-49 37-85 91-85s94 37 94 85v168H546z"/>
    <path d="M577 837h124l-13 105h-98z"/>
    <path d="M596 942h75v88h-75z"/>
    <path d="M556 1029h153"/>
  </g>
  <g fill="#cf9c73">
    <circle cx="181" cy="83" r="13"/>
    <circle cx="450" cy="83" r="13"/>
    <circle cx="719" cy="83" r="13"/>
  </g>
  <g stroke="#cf9c73" stroke-width="3" opacity=".6">
    <path d="M181 96v65M450 96v65M719 96v65"/>
  </g>
</svg>
